<?xml version="1.0" encoding="utf-8"?>
<!-- Generator: Adobe Illustrator 24.0.1, SVG Export Plug-In . SVG Version: 6.00 Build 0)  -->
<svg version="1.1" id="Ebene_1" xmlns="http://www.w3.org/2000/svg" xmlns:xlink="http://www.w3.org/1999/xlink" x="0px" y="0px"
	 viewBox="0 0 347.3 59.8" style="enable-background:new 0 0 347.3 59.8;" xml:space="preserve">
<style type="text/css">
	.st0{fill:#FFFFFF;}
	.st1{fill:#E30613;}
	.st2{fill:#0F75BB;}
</style>
<g>
	<g>
		<path class="st0" d="M31.2,25.4l-11-1.5c-1.6-0.2-2.9-0.6-3.7-1.3c-0.8-0.6-1.2-1.4-1.2-2.7c0-1.5,0.8-2.5,2.1-3.3s3-1.2,4.7-1.2
			c2.9,0,5.1,0.5,6.6,1.4c1.4,1,2.2,2.4,2.4,4.7v0.7h10.1v-0.8c-0.1-4.1-1.8-7.5-5-9.7C33,9.4,28.5,8.2,22.8,8.2
			c-4.6,0-9,0.9-12.4,3s-5.6,5.5-5.6,10.2c0,2.7,0.9,5.3,3.2,7.3s5.8,3.5,10.9,4.2l7.9,1.1c2.1,0.3,3.5,0.7,4.4,1.4
			c0.8,0.6,1.2,1.3,1.2,2.5c0,1.1-0.5,2.4-1.9,3.4S27,43,23.5,43c-3.3,0-5.7-0.7-7.2-1.8c-1.6-1.1-2.4-2.7-2.6-4.8l-0.1-0.9h-10v0.8
			c0,4.3,1.9,7.9,5.2,10.2s8,3.6,13.6,3.6c6.6,0,11.7-1.2,15.2-3.5c3.5-2.3,5.4-5.7,5.4-9.9c0-2.1-0.5-4.6-2.3-6.8
			C39,27.8,36,26,31.2,25.4"/>
	</g>
	<polygon class="st0" points="78.5,39.4 64.5,9.2 48.8,9.2 48.8,49.1 58.2,49.1 58.2,18.5 72.3,49.1 83.8,49.1 97.8,18.6 97.8,49.1 
		107.8,49.1 107.8,9.2 92.2,9.2 	"/>
	<g>
		<path class="st0" d="M141.5,25.4l-11-1.5c-1.6-0.2-2.9-0.6-3.7-1.3c-0.8-0.6-1.2-1.4-1.2-2.7c0-1.5,0.8-2.5,2.1-3.3
			c1.3-0.8,3-1.2,4.7-1.2c2.9,0,5.1,0.5,6.6,1.4c1.4,1,2.2,2.4,2.4,4.7v0.7h10.1v-0.8c-0.1-4.1-1.8-7.5-5-9.7
			c-3.1-2.3-7.6-3.5-13.3-3.5c-4.6,0-9,0.9-12.4,3s-5.6,5.5-5.6,10.2c0,2.7,0.9,5.3,3.2,7.3s5.8,3.5,11,4.2l7.9,1.1
			c2.1,0.3,3.5,0.7,4.4,1.4c0.8,0.6,1.2,1.3,1.2,2.5c0,1.1-0.5,2.4-1.9,3.4s-3.6,1.7-7.1,1.7c-3.3,0-5.7-0.7-7.2-1.8
			c-1.6-1.1-2.4-2.7-2.6-4.8l-0.1-0.7h-10v0.8c0,4.3,1.9,7.9,5.2,10.2s8,3.6,13.6,3.6c6.6,0,11.7-1.2,15.2-3.5s5.4-5.7,5.4-9.9
			c0-2.1-0.5-4.6-2.3-6.8C149,27.8,146.1,26,141.5,25.4"/>
		<path class="st0" d="M343.8,9.3h-3.3v39.9h3.3V9.3z M330.2,49.2h3.4c-0.3-3.3-0.3-5-0.3-7v-14c0-7.1-5.9-7.4-8.7-7.4
			c-4.9,0-9,2.1-9.3,7.5h3.5c0-3.3,2.4-4.8,5.5-4.8c4.4,0,5.6,2.5,5.6,6.6v2.3c-5.6,0.4-15.5-0.6-15.5,9.2c0,4.9,2.7,8.2,7.7,8.2
			c3.4,0,6.1-1.3,7.9-4h0.1L330.2,49.2L330.2,49.2z M330,40c0,3.6-3.1,7.1-6.9,7.1c-3.4,0-5-2.6-5-5.7c0-6.8,7.2-6.2,11.9-6.4V40z
			 M301.4,23.9v20c0,3.4,1.3,5.4,5.8,5.4c1.1,0,2.2-0.1,3.2-0.2v-2.9c-0.7,0.1-1.5,0.2-2.6,0.2c-2.7,0-3-0.9-3-4.6V23.9h5.6v-2.7
			h-5.6V14l-3.3,1.4v5.8H297v2.7H301.4z M291.9,9.3h-4.1v4.2h4.1V9.3z M291.5,21.3h-3.3v27.9h3.3V21.3z M277.1,24.7l-0.1-0.1
			c-1.2-2.5-4-3.9-6.9-3.9c-5.6,0-7.6,4.4-7.9,5.5c-0.8,3-0.8,3-0.8,9.5c0,6.2,0.6,13.1,8.6,13.1c2.7,0,5.3-1,6.7-3.4h0.1
			c0,8.3,0.4,11.8-6.1,11.8c-3.1,0-5.5-1.9-5.3-5.1h-3.3c-0.2,2.8,1.2,7.7,8.1,7.7c8,0,9.8-3.6,9.8-9.8V26.7c0-1.4,0.1-2.8,0.2-5.5
			H277v3.5H277.1z M270.6,23.4c3.1,0,6.2,2.2,6.2,8.1c0,8.2-0.2,9.5-1.1,11.6c-0.5,1.3-2.3,3.2-5,3.2c-6,0-6-5.8-6-11.6
			C264.9,30.4,264.9,23.4,270.6,23.4 M255,9.3h-4.1v4.2h4.1V9.3z M254.6,21.3h-3.3v27.9h3.3V21.3z M240.5,49.2h3.2
			c-0.2-0.9-0.3-2.8-0.3-5.5V9.3h-3.3v14.8l-0.1-0.1c-1.7-2.2-4.2-3.3-6.7-3.3c-8.6,0-8.6,9.1-8.6,14.5c0,6.5,0.4,14.5,8.5,14.5
			c3.3,0,5.4-1.4,7.1-4l0.1-0.1L240.5,49.2z M234,47.1c-3.6,0-6.1-1.4-6.1-11.8c0-6.5,0-11.9,6-11.9c6.2,0,6.2,7.7,6.2,9.4v5
			C240.2,44.5,237.2,47.1,234,47.1"/>
	</g>
	<polygon class="st1" points="188.9,0 188.9,17.9 197.9,17.9 197.9,26.8 215.6,26.8 215.6,0 	"/>
	<polygon class="st2" points="197.9,53.6 197.9,35.7 180,35.7 180,17.9 162.1,17.9 162.1,53.6 	"/>
	<rect x="184.5" y="22.3" class="st0" width="8.9" height="8.9"/>
</g>
</svg>
